<svg class="header__logo--white" width="300" height="98" viewBox="0 0 150 49" xmlns="http://www.w3.org/2000/svg"><g fill="none" fill-rule="evenodd"><path d="M-10-8h149.925v57.65H-10z"></path><path d="M37.18 38.072v-5.476l-2.71.113v.548c.815.014 1.011.267 1.011.688v4.128c0 .337-.21.477-1.01.491v.548h3.692v-.548c-.828-.014-.983-.154-.983-.492zm-6.319-5.56c-.87 0-1.502.337-2.05.829v-4.016l-2.737.112v.548c.842.014 1.039.266 1.039.688v7.372l-.028 1.305h.407l.716-.772a3.721 3.721 0 0 0 2.064.646c2.022 0 3.202-1.559 3.202-3.552 0-1.797-.914-3.16-2.613-3.16zm-.701 6.122c-.59 0-1.04-.323-1.348-1.01v-3.722c.407-.309.772-.491 1.263-.491.94 0 1.587.856 1.587 2.4 0 1.882-.45 2.823-1.502 2.823zm11.387-.562v-8.747l-2.724.112v.548c.829.014 1.04.266 1.04.688v7.4c0 .336-.183.477-.983.49v.548h3.65v-.547c-.814-.014-.983-.154-.983-.492zm-39.6-3.88a1.41 1.41 0 1 0 0 2.818 1.41 1.41 0 0 0 0-2.819zm20.265-1.694c-2.036 0-3.342 1.348-3.342 3.384 0 2.05 1.222 3.37 3.342 3.37 2.022 0 3.313-1.376 3.313-3.426 0-2.036-1.221-3.328-3.313-3.328zm.056 6.164c-1.04 0-1.573-.87-1.573-2.808 0-1.924.422-2.766 1.447-2.766 1.039 0 1.558.842 1.558 2.766 0 1.937-.42 2.808-1.432 2.808zm22.874-7.315c.618 0 1.025-.422 1.025-1.067 0-.618-.407-1.04-1.025-1.04-.618 0-1.04.45-1.04 1.082.001.646.422 1.025 1.04 1.025zm-8.832 0c.618 0 1.025-.422 1.025-1.067 0-.618-.407-1.04-1.025-1.04-.618 0-1.04.45-1.04 1.082 0 .646.422 1.025 1.04 1.025zm9.703 6.725v-5.476l-2.71.113v.548c.814.014 1.01.267 1.01.688v4.128c0 .337-.21.477-1.01.491v.548h3.692v-.548c-.828-.014-.982-.154-.982-.492zm-28.871 0v-3.496c0-1.305-.548-2.021-1.657-2.021-.885 0-1.741.561-2.457 1.25-.21-.801-.744-1.25-1.587-1.25-.912 0-1.656.52-2.358 1.08v-1.039l-2.654.113v.548c.8.014.983.267.983.688v4.128c0 .337-.182.477-.983.491v.548h3.384v-.548c-.59-.014-.702-.154-.702-.491v-3.946c.379-.238.702-.449 1.235-.449.73 0 1.081.379 1.081 1.32v3.075c0 .337-.112.477-.716.491v.548H13.9v-.548c-.646-.014-.773-.154-.773-.491v-3.454c0-.099 0-.197-.028-.365.464-.338.927-.576 1.32-.576.744 0 1.04.378 1.04 1.32v3.074c0 .337-.127.478-.73.492v.547h3.397v-.547c-.8-.014-.983-.154-.983-.492zm110.835-3.88a1.41 1.41 0 1 0 0 2.818 1.41 1.41 0 0 0 0-2.819zm-76.713 4.105c-.534 0-.8-.35-.8-1.052V33.41h2.05v-.758h-2.05v-2.33l-1.67.547v1.755l-1.223.253v.561h1.194v3.89c0 1.333.744 1.895 1.811 1.895 1.025 0 1.657-.478 2.163-1.474l-.422-.28c-.323.518-.66.827-1.053.827zm49.33 0c-.535 0-.801-.35-.801-1.052V33.41h2.05v-.758h-2.05v-2.33l-1.671.547v1.755l-1.222.253v.561h1.194v3.89c0 1.333.744 1.895 1.811 1.895 1.025 0 1.657-.478 2.162-1.474l-.421-.28c-.323.518-.66.827-1.053.827zm8.62-.252v-5.449l-2.696.07v.549c.772.028.997.182.997.617v3.89c-.393.21-.716.364-1.25.364-.772 0-1.137-.378-1.137-1.333v-4.157l-2.696.056v.548c.814.028.997.197.997.632v3.356c0 1.306.702 2.036 1.826 2.036.898 0 1.628-.45 2.288-1.039v.927h2.654v-.534c-.786-.042-.982-.14-.982-.533zm11.894.365c-1.32 0-1.98-1.04-1.98-2.528v-.056h4.227c.112-1.783-.8-3.328-2.78-3.328-1.938 0-3.244 1.377-3.244 3.454 0 2.008 1.166 3.3 3.244 3.3 1.404 0 2.232-.716 2.822-1.67l-.38-.324c-.533.717-1.165 1.152-1.91 1.152zm-.632-5.336c.884 0 1.264.969 1.152 2.176l-2.486.042c.098-1.502.576-2.218 1.334-2.218zm-4.985-.52c-.744 0-1.404.548-1.881 1.18v-1.138l-2.654.113v.548c.8.014.983.267.983.688v4.128c0 .337-.183.477-.983.491v.548h3.917v-.548c-1.011-.028-1.236-.154-1.236-.491V34.28c.268-.336.716-.673 1.194-.66a1.985 1.985 0 0 0-.028.268c0 .52.393.842.968.842.534 0 .913-.45.913-1.039 0-.618-.393-1.137-1.193-1.137zM95.61 37.666v-2.85c0-1.502-.787-2.26-2.444-2.26-1.727 0-2.85.632-2.85 1.502 0 .52.323.899.927.899.603 0 .968-.393.968-.913 0-.253-.084-.478-.182-.688.182-.14.422-.21.745-.21.8 0 1.164.365 1.164 1.53v.632c-.392.168-2.007.252-3.032.814-.59.323-.885.94-.885 1.503 0 .8.561 1.614 1.854 1.614.814 0 1.53-.435 2.092-1.024h.07c.154.687.365.996 1.222.996.505 0 .94-.155 1.46-.435l-.127-.421c-.856.14-.982 0-.982-.689zm-1.672-.042c-.252.351-.66.66-1.137.66-.632 0-.97-.422-.97-1.025 0-.843.479-1.138 2.107-1.418v1.783zm-26.23-5.11c-.87 0-1.503.336-2.05.828v-4.016l-2.738.112v.548c.842.014 1.04.266 1.04.688v7.372l-.029 1.305h.407l.717-.772a3.72 3.72 0 0 0 2.063.646c2.023 0 3.202-1.559 3.202-3.552 0-1.797-.914-3.16-2.612-3.16zm-.702 6.121c-.59 0-1.039-.323-1.348-1.01v-3.722c.408-.309.772-.491 1.263-.491.941 0 1.587.856 1.587 2.4 0 1.882-.449 2.823-1.502 2.823zm-9.492-5.476c.87.14 1.01.505.673 1.306l-1.193 2.808-1.418-3.412c-.169-.407-.028-.632.772-.702v-.533H52.74v.533c.632.113.843.281 1.11.871l2.316 5.04-.056.127c-.604 1.446-.913 1.881-1.306 1.951.028-.084.056-.224.056-.323 0-.449-.337-.913-.899-.913-.575 0-.94.478-.94.97 0 .631.52 1.109 1.334 1.109.842 0 1.558-.505 2.316-2.275l2.415-5.518c.31-.702.674-.983 1.137-1.04v-.533h-2.71v.534zm18.072 0c.87.14 1.01.505.673 1.306l-1.193 2.808-1.418-3.412c-.168-.407-.028-.632.772-.702v-.533H70.81v.533c.633.113.843.281 1.11.871l2.316 5.04-.056.127c-.603 1.446-.912 1.881-1.305 1.951.028-.084.056-.224.056-.323 0-.449-.337-.913-.899-.913-.576 0-.94.478-.94.97 0 .631.519 1.109 1.333 1.109.843 0 1.56-.505 2.317-2.275l2.415-5.518c.309-.702.674-.983 1.137-1.04v-.533h-2.71v.534zm12.65 4.914v-3.496c0-1.305-.56-2.021-1.67-2.021-.912 0-1.77.52-2.471 1.08v-1.039l-2.654.113v.548c.8.014.983.267.983.688v4.128c0 .337-.183.477-.983.491v.548h3.468v-.548c-.59-.014-.786-.154-.786-.491v-3.946c.378-.238.828-.449 1.362-.449.73 0 1.052.365 1.052 1.32v3.075c0 .337-.196.477-.8.491v.548h3.482v-.548c-.813-.014-.982-.154-.982-.492z" fill="#FFF" fill-rule="nonzero"></path><g fill="#FFF" fill-rule="nonzero"><path d="M104.042 6.315l-1.272 1.35c2.053 3.226 2.338 7.346.433 10.788l.697-.012c2.367-3.844 2.333-8.461.142-12.126zm-5.576.775l.691-.727c-3.45-3.193-9.172-3.121-12.502.303-1.985 2.038-2.922 4.766-2.47 7.336l.694-.021c.039-3.586 2.971-6.541 6.67-6.623 3.78-.104 6.917 2.792 6.997 6.478.102 3.696-2.864 6.75-6.64 6.851a6.942 6.942 0 0 1-4.884-1.819l-.98 1.007a10.438 10.438 0 0 1-.407-15.013c3.334-3.43 8.438-4.211 12.57-2.3l.053.06.532-.592C93.533-1.023 86.595-.155 82.17 4.391c-5.228 5.359-4.988 13.823.514 18.907l.992-1.011c2.173 1.99 4.697 2.988 7.644 2.904 5.945-.157 10.64-4.973 10.49-10.76a10.329 10.329 0 0 0-3.344-7.34zM30.554 2.539h-4.999v20.266h14.158v-3.937h-9.16V2.538zm-22.258 0L.54 22.805h4.839c.88-3.011 4.718-5.286 8.292-5.605l-.737-1.833c-1.503-.197-3.71.043-5.05.624l3.27-8.574 6.339 15.388h4.83L13.977 2.54h-5.68zM58.642 6.46h6.661v16.344h5.122V6.461h6.693V2.54H58.643V6.46zm66.295-3.922l-5.852 7.702-5.768-7.702h-4.493v20.266h5.12V10.422l4.796 6.55h.731l4.788-6.55v12.383h5.127V2.539h-4.449zM46.361 7.738c0-1.628 3.696-3.048 9.46-.977l.335-4.001c-.912-.403-3.497-1.08-5.467-1.08-4.199 0-8.959 1.547-8.959 6.583 0 7.551 11.27 4.967 10.947 9.09-.125 1.6-2.51 1.988-4.526 1.988-2.29 0-4.35-.456-5.743-1.118l-.478 4.347c1.86.6 4.275.896 6.221.896 4.645 0 9.181-1.464 9.2-6.881.009-7.24-10.99-5.133-10.99-8.847z"></path></g></g></svg>